<svg xmlns="http://www.w3.org/2000/svg" id="publishSVG" width="300" height="200" viewBox="0 0 300 200" style="touch-action: none; -webkit-tap-highlight-color: rgba(0, 0, 0, 0);"><style xmlns="http://www.w3.org/1999/xhtml"></style><defs xmlns="http://www.w3.org/1999/xhtml"></defs>
    
<g id="publishG"><g id="publishElemG" shape-rendering="geometricPrecision" text-rendering="geometricPrecision"><g transform="matrix(0.65 0 0 0.65 22.2258 28.1916)" parentid="component18">
		<g id="layer1" transform="translate(-49.41697,-201.3052)" style="opacity:1;display:inline">
			<text id="text10601" y="274.76184" x="113.1965" style="font-size:24px;font-style:normal;font-weight:normal;line-height:125%;fill:black;fill-opacity:1;stroke:none;stroke-width:1px;stroke-linecap:butt;stroke-linejoin:miter;stroke-opacity:1;font-family:Bitstream Vera Sans" xml:space="preserve"><tspan style="font-size:18px;font-style:normal;font-variant:normal;font-weight:normal;font-stretch:normal;text-align:start;line-height:125%;writing-mode:lr-tb;text-anchor:start;font-family:Times New Roman" y="274.76184" x="113.1965" id="tspan10603">S</tspan></text>
			<text xml:space="preserve" style="font-size:24px;font-style:normal;font-weight:normal;line-height:125%;fill:black;fill-opacity:1;stroke:none;stroke-width:1px;stroke-linecap:butt;stroke-linejoin:miter;stroke-opacity:1;font-family:Bitstream Vera Sans" x="113.1965" y="218.06894" id="text10605"><tspan id="tspan10607" x="113.1965" y="218.06894" style="font-size:18px;font-style:normal;font-variant:normal;font-weight:normal;font-stretch:normal;text-align:start;line-height:125%;writing-mode:lr-tb;text-anchor:start;font-family:Times New Roman">D</tspan></text>
			<text id="text10609" y="249.95874" x="49.416969" style="font-size:24px;font-style:normal;font-weight:normal;line-height:125%;fill:black;fill-opacity:1;stroke:none;stroke-width:1px;stroke-linecap:butt;stroke-linejoin:miter;stroke-opacity:1;font-family:Bitstream Vera Sans" xml:space="preserve"><tspan style="font-size:18px;font-style:normal;font-variant:normal;font-weight:normal;font-stretch:normal;text-align:start;line-height:125%;writing-mode:lr-tb;text-anchor:start;font-family:Times New Roman" y="249.95874" x="49.416969" id="tspan10611">G</tspan></text>
			<path style="opacity:1;color:black;fill:none;fill-opacity:0.69090911;fill-rule:nonzero;stroke:black;stroke-width:1.53429651;stroke-linecap:square;stroke-linejoin:miter;marker:none;marker-start:none;marker-mid:none;marker-end:none;stroke-miterlimit:4;stroke-dasharray:none;stroke-dashoffset:0;stroke-opacity:1;display:inline;overflow:visible" id="path5124" d="M 435.82676 100.86611 A 14.173228 10.629921 0 1 1  407.48031,100.86611 A 14.173228 10.629921 0 1 1  435.82676 100.86611 z" transform="matrix(-2,0,0,-2.666666,934.7,508.3051)"/>
			<path style="opacity:1;fill:none;fill-opacity:0.75;fill-rule:evenodd;stroke:black;stroke-width:3.54330683;stroke-linecap:butt;stroke-linejoin:miter;stroke-miterlimit:4;stroke-dasharray:none;stroke-opacity:1;display:inline" d="M 84.850041,253.50205 L 56.503581,253.50205" id="path5126"/>
			<path style="opacity:1;fill:none;fill-opacity:0.75;fill-rule:evenodd;stroke:black;stroke-width:3.54330707;stroke-linecap:butt;stroke-linejoin:miter;stroke-miterlimit:4;stroke-dasharray:none;stroke-opacity:1;display:inline" d="M 106.10988,274.76189 L 106.10988,253.50205" id="path5130"/>
			<path style="opacity:1;fill:none;fill-opacity:0.75;fill-rule:evenodd;stroke:black;stroke-width:3.54330707;stroke-linecap:butt;stroke-linejoin:miter;stroke-miterlimit:4;stroke-dasharray:none;stroke-opacity:1;display:inline" d="M 106.10988,225.15559 L 106.10988,203.89574" id="path5132"/>
			<path id="path5204" style="opacity:1;fill:none;fill-opacity:0.75;fill-rule:evenodd;stroke:black;stroke-width:3.5433073;stroke-linecap:square;stroke-linejoin:miter;marker-end:none;stroke-miterlimit:4;stroke-opacity:1;display:inline" d="M 84.850043,225.15558 L 84.850043,253.50202"/>
			<path style="opacity:1;fill:none;fill-opacity:0.75;fill-rule:evenodd;stroke:black;stroke-width:3.54330707;stroke-linecap:square;stroke-linejoin:miter;marker-end:none;stroke-miterlimit:4;stroke-dasharray:none;stroke-opacity:1;display:inline" d="M 91.936663,239.32882 L 99.023283,239.32882" id="path5206"/>
			<path style="opacity:1;fill:none;fill-opacity:0.75;fill-rule:evenodd;stroke:black;stroke-width:3.54330707;stroke-linecap:square;stroke-linejoin:miter;stroke-miterlimit:4;stroke-dasharray:none;stroke-opacity:1;display:inline" d="M 106.10988,253.50204 L 91.936663,253.50204" id="path5208"/>
			<path style="opacity:1;fill:none;fill-opacity:0.75;fill-rule:evenodd;stroke:black;stroke-width:3.54330707;stroke-linecap:square;stroke-linejoin:miter;stroke-miterlimit:4;stroke-dasharray:none;stroke-opacity:1;display:inline" d="M 91.936663,225.15558 L 106.10988,225.15558" id="path5210"/>
			<path style="opacity:1;fill:none;fill-opacity:0.75;fill-rule:evenodd;stroke:black;stroke-width:4.96062994;stroke-linecap:butt;stroke-linejoin:miter;stroke-miterlimit:4;stroke-dasharray:none;stroke-dashoffset:13.39370084;stroke-opacity:1;display:inline" d="M 91.936663,218.06898 L 91.936663,260.58866" id="path5212"/>
			<g style="opacity:1;stroke:black;stroke-width:1.0629921;stroke-miterlimit:4;stroke-dasharray:none;display:inline" id="g5214" transform="matrix(2,0,0,2,-1050.943,-184.5374)">
				<path style="fill-rule:evenodd;stroke:black;stroke-width:1.0629921;marker-start:none;stroke-miterlimit:4;stroke-dasharray:none" d="M 578.04803,211.93117 L 574.98307,210.15952 L 574.98307,213.70282 L 578.04803,211.93117 z " id="path5216"/></g>
			<path style="opacity:1;fill:none;fill-opacity:0.75;fill-rule:evenodd;stroke:black;stroke-width:3.54330707;stroke-linecap:square;stroke-linejoin:miter;marker-end:none;stroke-miterlimit:4;stroke-dasharray:none;stroke-opacity:1;display:inline" d="M 106.10988,253.49811 L 106.10988,239.32489 L 99.023283,239.32882" id="path5230"/></g>
		<rect id="cover" width="77" height="77" fill="white" fill-opacity="0" style="cursor: default;" vector-effects="non-scaling-stroke" stroke-width="6" stroke-opacity=".5"/></g><g transform="matrix(0.3 0 0 0.3 74.1575 29.9252)" parentid="component41">
		<path style="fill:none;fill-opacity:0.75;fill-rule:evenodd;stroke:#000000;stroke-width:7.5;stroke-linecap:round;stroke-linejoin:miter;stroke-opacity:1;stroke-miterlimit:4;stroke-dasharray:none" d="M 72,51 L 185,51" id="path13189"/>
		<use x="0" y="0" href="#path13189" id="use1318" transform="translate(0,78)" width="500" height="180"/>
		<use x="0" y="0" href="#path13189" id="use2208" transform="translate(196.5757,39)" width="500" height="180"/>
		<path id="rect2193" style="fill:#ffffff;fill-opacity:1;fill-rule:evenodd;stroke:#000000;stroke-width:7.49999857;stroke-linecap:butt;stroke-linejoin:round;stroke-miterlimit:4;stroke-dashoffset:0;stroke-opacity:1" d="M 148,169.24997 C 147.86307,169.25544 189.01219,161.81425 189.01219,89.999999 C 189.01219,17.478772 147.99697,10.749695 148,10.750027 C 214.25305,18.014053 257.40202,7.7267425 303,90.000005 C 269,162.74602 224.41039,166.19896 148,169.24997 z "/>
		<rect id="cover" width="310" height="159" fill="white" fill-opacity="0" style="cursor: default;" vector-effects="non-scaling-stroke" stroke-width="6" stroke-opacity=".5"/></g><g transform="matrix(0.3 0 0 0.3 177.158 31.9253)" parentid="component41q">
		<path style="fill:none;fill-opacity:0.75;fill-rule:evenodd;stroke:#000000;stroke-width:7.5;stroke-linecap:round;stroke-linejoin:miter;stroke-opacity:1;stroke-miterlimit:4;stroke-dasharray:none" d="M 72,51 L 185,51" id="path13122"/>
		<use x="0" y="0" href="#path13122" id="use1318" transform="translate(0,78)" width="500" height="180"/>
		<use x="0" y="0" href="#path13122" id="use2208" transform="translate(196.5757,39)" width="500" height="180"/>
		<path id="rect2193" style="fill:#ffffff;fill-opacity:1;fill-rule:evenodd;stroke:#000000;stroke-width:7.5;stroke-linecap:butt;stroke-linejoin:round;stroke-miterlimit:4;stroke-dashoffset:0;stroke-opacity:1" d="M 135.67366,169.24997 C 135.54865,169.25544 173.11664,161.81425 173.11664,89.999999 C 173.11664,17.478772 135.6709,10.749695 135.67366,10.750027 C 196.16084,18.014053 235.55464,7.7267425 277.18432,90.000005 C 246.14327,162.74602 205.43421,166.19896 135.67366,169.24997 z "/>
		<path id="path1315" style="fill:none;fill-opacity:1;fill-rule:evenodd;stroke:#000000;stroke-width:7.50000143;stroke-linecap:round;stroke-linejoin:round;stroke-miterlimit:4;stroke-dasharray:none;stroke-dashoffset:0;stroke-opacity:1" d="M 98.49408,167.34036 C 98.35715,167.3457 139.50626,160.08381 139.50626,90.000002 C 139.50626,19.226244 98.49105,12.659314 98.49408,12.659634"/>
		<rect id="cover" width="310" height="159" fill="white" fill-opacity="0" style="cursor: default;" vector-effects="non-scaling-stroke" stroke-width="6" stroke-opacity=".5"/>
	</g><g transform="matrix(0.4 0 0 0.4 132.219 101.174)" parentid="component89">
		<path d="M 43.301,88.568 C 43.301,51.938 72.256,22.244 107.97,22.244 C 143.69,22.244 172.64,51.938 172.64,88.568 C 172.64,125.2 143.69,154.89 107.97,154.89 C 72.256,154.89 43.301,125.2 43.301,88.568 z" id="path5124" style="fill:none;fill-opacity:0.69091;fill-rule:nonzero;stroke:#000000;stroke-width:2.5;stroke-linecap:square;stroke-linejoin:miter;marker:none;marker-start:none;marker-mid:none;marker-end:none;stroke-miterlimit:4;stroke-dasharray:none;stroke-dashoffset:0;stroke-opacity:1;display:inline;overflow:visible"/>
		<path d="M 129.19,87.428 L 90.729,87.244" id="path5126" style="fill:none;fill-opacity:0.75;fill-rule:evenodd;stroke:#000000;stroke-width:3.54331;stroke-linecap:butt;stroke-linejoin:miter;stroke-miterlimit:4;stroke-dasharray:none;stroke-opacity:1;display:inline"/>
		<path d="M 129.19,73.255 L 129.19,101.6" id="path5128" style="fill:none;fill-opacity:0.75;fill-rule:evenodd;stroke:#000000;stroke-width:4.96063;stroke-linecap:square;stroke-linejoin:miter;stroke-miterlimit:4;stroke-dasharray:none;stroke-opacity:1;display:inline"/>
		<path d="M 149.97,172.24 L 149.97,108.24 L 129.1,94.428" id="path5130" style="fill:none;fill-opacity:0.75;fill-rule:evenodd;stroke:#000000;stroke-width:3.54331;stroke-linecap:butt;stroke-linejoin:miter;stroke-miterlimit:4;stroke-dasharray:none;stroke-opacity:1;display:inline"/>
		<path d="M 129.1,80.255 L 149.97,66.244 L 149.97,7.2438" id="path5132" style="fill:none;fill-opacity:0.75;fill-rule:evenodd;stroke:#000000;stroke-width:3.54331;stroke-linecap:butt;stroke-linejoin:miter;stroke-miterlimit:4;stroke-dasharray:none;stroke-opacity:1;display:inline"/>
		<path d="M 140.12,105.19 L 143.1,100.74 L 146.74,106.25 L 140.12,105.19 z" id="path5134" style="fill:#000000;fill-opacity:1;fill-rule:nonzero;stroke:#000000;stroke-width:3.54331;stroke-linecap:square;stroke-linejoin:miter;marker:none;marker-start:none;marker-mid:none;marker-end:none;stroke-miterlimit:4;stroke-dashoffset:0;stroke-opacity:1;display:inline;overflow:visible"/>
		<path d="M 97.974,124.58 L 107.15,124.58" id="path5036" style="fill:none;fill-opacity:0.75;fill-rule:evenodd;stroke:#000000;stroke-width:3.544;stroke-linecap:square;stroke-linejoin:miter;stroke-miterlimit:4;stroke-dasharray:none;stroke-opacity:1"/>
		<path d="M 143.8,124.85 L 150.4,124.99" id="path5038" style="fill:none;fill-opacity:0.75;fill-rule:evenodd;stroke:#000000;stroke-width:3.54331;stroke-linecap:square;stroke-linejoin:miter;stroke-miterlimit:4;stroke-dasharray:none;stroke-opacity:1"/>
		<rect width="35.433" height="14.173" x="107.97" y="118.07" id="rect5044" style="fill:none;fill-opacity:1;fill-rule:nonzero;stroke:#000000;stroke-width:3.54331;stroke-linecap:square;stroke-linejoin:round;marker:none;marker-start:none;marker-mid:none;marker-end:none;stroke-miterlimit:4;stroke-dasharray:none;stroke-dashoffset:0;stroke-opacity:1;display:inline;overflow:visible"/>
		<path d="M 7.9738,87.244 L 54.808,87.244" id="path3863" style="fill:none;fill-opacity:0.75;fill-rule:evenodd;stroke:#000000;stroke-width:3.544;stroke-linecap:square;stroke-linejoin:miter;stroke-miterlimit:4;stroke-dasharray:none;stroke-opacity:1"/>
		<rect width="35.433" height="14.173" x="55.224" y="80.066" id="rect3867" style="fill:none;fill-opacity:1;fill-rule:nonzero;stroke:#000000;stroke-width:3.54331;stroke-linecap:square;stroke-linejoin:round;marker:none;marker-start:none;marker-mid:none;marker-end:none;stroke-miterlimit:4;stroke-dasharray:none;stroke-dashoffset:0;stroke-opacity:1;display:inline;overflow:visible"/>
		<path d="M 97.974,124.53 L 97.974,88.07" id="path3869" style="fill:none;fill-opacity:0.75;fill-rule:evenodd;stroke:#000000;stroke-width:3.544;stroke-linecap:square;stroke-linejoin:miter;stroke-miterlimit:4;stroke-dasharray:none;stroke-opacity:1"/>
		<path d="M 100.35,87.872 C 100.35,89.182 99.284,90.244 97.974,90.244 C 96.664,90.244 95.602,89.182 95.602,87.872 C 95.602,86.562 96.664,85.5 97.974,85.5 C 99.284,85.5 100.35,86.562 100.35,87.872 z" id="path2404" style="fill:#000000;fill-opacity:1;fill-rule:nonzero;stroke:#000000;stroke-width:3.54331;stroke-linecap:square;stroke-linejoin:miter;marker:none;marker-start:none;marker-mid:none;marker-end:none;stroke-miterlimit:4;stroke-dasharray:none;stroke-dashoffset:0;stroke-opacity:1;display:inline;overflow:visible"/>
		<path d="M 152.34,124.61 C 152.34,125.92 151.28,126.98 149.97,126.98 C 148.66,126.98 147.6,125.92 147.6,124.61 C 147.6,123.3 148.66,122.24 149.97,122.24 C 151.28,122.24 152.34,123.3 152.34,124.61 z" id="path4642" style="fill:#000000;fill-opacity:1;fill-rule:nonzero;stroke:#000000;stroke-width:3.54331;stroke-linecap:square;stroke-linejoin:miter;marker:none;marker-start:none;marker-mid:none;marker-end:none;stroke-miterlimit:4;stroke-dasharray:none;stroke-dashoffset:0;stroke-opacity:1;display:inline;overflow:visible"/>
		<text x="6.2017999" y="5.4721999" id="text4644" xml:space="preserve" style="font-size:22px;font-style:normal;font-weight:normal;fill:#000000;fill-opacity:1;stroke:none;stroke-width:1px;stroke-linecap:butt;stroke-linejoin:miter;stroke-opacity:1;font-family:Bitstream Vera Sans">      <tspan x="5.4292135" y="82.243851" id="tspan4646">B</tspan>      <tspan x="157.9738" y="172.24385" id="tspan4650">E</tspan>      <tspan x="157.9738" y="27.243853" id="tspan4654">C</tspan>   </text>
		<rect id="cover" width="204" height="198" fill="white" fill-opacity="0" style="cursor: default;" vector-effects="non-scaling-stroke" stroke-width="6" stroke-opacity=".5"/></g><g transform="matrix(0.35 0 0 0.35 18.375 99.75)" parentid="component151">
		<g id="layer1">
			<path style="fill:none;fill-opacity:0.75;fill-rule:evenodd;stroke:black;stroke-width:3.125;stroke-linecap:butt;stroke-linejoin:miter;stroke-miterlimit:4;stroke-dasharray:none;stroke-opacity:1" d="M 192.03561,35.161425 C 33.94674,35.161425 33.94674,35.161425 33.94674,35.161425" id="path2116"/>
			<path style="fill:none;fill-opacity:0.75;fill-rule:evenodd;stroke:black;stroke-width:3.125;stroke-linecap:butt;stroke-linejoin:miter;stroke-miterlimit:4;stroke-dasharray:none;stroke-opacity:1" d="M 194.05592,73.04215 C 33.94674,73.04215 33.94674,73.04215 33.94674,73.04215" id="path2118"/>
			<path style="fill:none;fill-opacity:0.75;fill-rule:evenodd;stroke:black;stroke-width:3.125;stroke-linecap:butt;stroke-linejoin:miter;stroke-miterlimit:4;stroke-dasharray:none;stroke-opacity:1" d="M 168.8021,141.22744 C 121.32493,141.22744 121.32493,141.22744 121.32493,141.22744 L 121.32493,35.161425" id="path2120"/>
			<path style="fill:none;fill-opacity:0.75;fill-rule:evenodd;stroke:black;stroke-width:3.125;stroke-linecap:butt;stroke-linejoin:miter;stroke-miterlimit:4;stroke-dasharray:none;stroke-opacity:1" d="M 170.31733,176.07771 L 92.03051,176.07771 L 92.03051,73.04215" id="path2122"/>
			<path id="use2208" d="M 211.06519,157.50509 L 290.00251,157.50509" style="fill:none;fill-opacity:0.75;fill-rule:evenodd;stroke:black;stroke-width:2.87729025;stroke-linecap:round;stroke-linejoin:miter;stroke-miterlimit:4;stroke-dasharray:none;stroke-opacity:1"/>
			<path id="rect2193" style="fill:white;fill-opacity:1;fill-rule:evenodd;stroke:black;stroke-width:3.125;stroke-linecap:butt;stroke-linejoin:round;stroke-miterlimit:4;stroke-dasharray:none;stroke-dashoffset:0;stroke-opacity:1" d="M 189.19053,195.83423 L 151.70773,195.8342 L 151.70773,119.17586 L 189.43235,119.17585 C 209.88103,119.17584 226.67332,136.34732 226.67332,157.50503 C 226.67332,178.66275 209.88103,195.83423 189.19053,195.83423 z "/>
			<path id="use2029" d="M 240.7439,54.90166 L 291.41668,54.90166" style="fill:none;fill-opacity:0.75;fill-rule:evenodd;stroke:black;stroke-width:2.94923663;stroke-linecap:round;stroke-linejoin:miter;stroke-miterlimit:4;stroke-dasharray:none;stroke-opacity:1"/>
			<path id="path2031" style="fill:white;fill-opacity:1;fill-rule:evenodd;stroke:black;stroke-width:3.125;stroke-linecap:butt;stroke-linejoin:round;stroke-miterlimit:4;stroke-dasharray:none;stroke-dashoffset:0;stroke-opacity:1" d="M 156.61566,98.46547 C 156.54119,98.46844 178.92177,94.42126 178.92177,55.36223 C 178.92177,15.91867 156.61401,12.2588 156.61566,12.25898 C 192.65001,16.20981 216.11829,10.61465 240.91857,55.36223 C 222.42632,94.92804 198.17449,96.80606 156.61566,98.46547 z "/>
			<path d="M 143.03563,97.42687 C 142.96116,97.42978 165.34174,93.48011 165.34174,55.36224 C 165.34174,16.86913 143.03398,13.29744 143.03563,13.29762" style="fill:none;fill-opacity:1;fill-rule:evenodd;stroke:black;stroke-width:3.125;stroke-linecap:round;stroke-linejoin:round;stroke-miterlimit:4;stroke-dasharray:none;stroke-dashoffset:0;stroke-opacity:1" id="path1315"/>
			<text xml:space="preserve" style="font-size:28px;font-style:normal;font-variant:normal;font-weight:normal;font-stretch:normal;text-align:start;line-height:125%;writing-mode:lr-tb;text-anchor:start;fill:black;fill-opacity:1;stroke:none;stroke-width:1px;stroke-linecap:butt;stroke-linejoin:miter;stroke-opacity:1;font-family:Bitstream Vera Sans" x="295.73962" y="64.673286" id="text2080"><tspan id="tspan2082" x="295.73962" y="64.673286" style="font-size:28px;font-style:normal;font-variant:normal;font-weight:normal;font-stretch:normal;text-align:start;line-height:125%;writing-mode:lr-tb;text-anchor:start;font-family:Bitstream Vera Sans">S</tspan></text>
			<text xml:space="preserve" style="font-size:28px;font-style:normal;font-variant:normal;font-weight:normal;font-stretch:normal;text-align:start;line-height:125%;writing-mode:lr-tb;text-anchor:start;fill:black;fill-opacity:1;stroke:none;stroke-width:1px;stroke-linecap:butt;stroke-linejoin:miter;stroke-opacity:1;font-family:Bitstream Vera Sans" x="296.90149" y="165.94339" id="text2084"><tspan id="tspan2086" x="296.90149" y="165.94339" style="font-size:28px;font-style:normal;font-variant:normal;font-weight:normal;font-stretch:normal;text-align:start;line-height:125%;writing-mode:lr-tb;text-anchor:start;font-family:Bitstream Vera Sans">C</tspan></text>
			<path style="opacity:1;fill:black;fill-opacity:1;stroke:black;stroke-width:3.125;stroke-linecap:square;stroke-linejoin:bevel;stroke-miterlimit:4;stroke-dasharray:none;stroke-opacity:1" id="path3010" d="M 207.33381 125.54722 A 5.4295697 5.4295697 0 1 1  196.47467,125.54722 A 5.4295697 5.4295697 0 1 1  207.33381 125.54722 z" transform="translate(-110,-52)"/>
			<path style="opacity:1;fill:black;fill-opacity:1;stroke:black;stroke-width:3.125;stroke-linecap:square;stroke-linejoin:bevel;stroke-miterlimit:4;stroke-dasharray:none;stroke-opacity:1" id="path3012" d="M 207.33381 125.54722 A 5.4295697 5.4295697 0 1 1  196.47467,125.54722 A 5.4295697 5.4295697 0 1 1  207.33381 125.54722 z" transform="translate(-80.70557,-90.5121)"/>
			<text xml:space="preserve" style="font-size:28px;font-style:normal;font-variant:normal;font-weight:normal;font-stretch:normal;text-align:start;line-height:125%;writing-mode:lr-tb;text-anchor:start;fill:black;fill-opacity:1;stroke:none;stroke-width:1px;stroke-linecap:butt;stroke-linejoin:miter;stroke-opacity:1;font-family:Bitstream Vera Sans" x="9.4942169" y="41.790756" id="text3014"><tspan id="tspan3016" x="9.4942169" y="41.790756">A</tspan></text>
			<text xml:space="preserve" style="font-size:28px;font-style:normal;font-variant:normal;font-weight:normal;font-stretch:normal;text-align:start;line-height:125%;writing-mode:lr-tb;text-anchor:start;fill:black;fill-opacity:1;stroke:none;stroke-width:1px;stroke-linecap:butt;stroke-linejoin:miter;stroke-opacity:1;font-family:Bitstream Vera Sans" x="9.0772171" y="83.933609" id="text3018"><tspan id="tspan3020" x="9.0772171" y="83.933609">B</tspan></text>
		</g>
		<rect id="cover" width="325" height="210" fill="white" fill-opacity="0" style="cursor: default;" vector-effects="non-scaling-stroke" stroke-width="6" stroke-opacity=".5"/></g><g transform="matrix(0.4 0 0 0.4 212.65 110.9)" parentid="component242">
		<g id="layer4" style="display:inline" transform="translate(-8.9060022,-78.633799)"/>
		<g id="layer1" transform="translate(-111.13039,-141.43112)" style="display:inline">
			<rect style="color:#000000;fill:#666666;fill-opacity:1;fill-rule:nonzero;stroke:#000000;stroke-width:1.77199996;stroke-linecap:butt;stroke-linejoin:round;stroke-miterlimit:4;stroke-opacity:1;stroke-dasharray:none;stroke-dashoffset:0;marker:none;display:inline;overflow:visible" id="rect3251" width="0" height="3.5433071" x="354.33072" y="251.88977" transform="translate(102.2244,62.7973)" ry="0"/>
			<g style="display:inline" id="g4018" transform="matrix(-1,0,0,-1,932.3256,599.256)"/>
			<g style="display:inline" id="g22354" transform="translate(122.2441,207.3719)">
				<path style="fill:none;stroke:#000000;stroke-width:3.54330707;stroke-linecap:butt;stroke-linejoin:miter;stroke-miterlimit:4;stroke-opacity:1;stroke-dasharray:none" d="m 68.610677,56.307212 0,-24.80315" id="path2387"/>
				<path id="path2385" d="M 146.56343,56.307212 15.461056,56.303274" style="fill:none;stroke:#000000;stroke-width:3.54330707;stroke-linecap:butt;stroke-linejoin:miter;stroke-miterlimit:4;stroke-opacity:1;stroke-dasharray:none"/>
				<path style="fill:none;stroke:#000000;stroke-width:3.54330707;stroke-linecap:butt;stroke-linejoin:miter;stroke-miterlimit:4;stroke-opacity:1;stroke-dasharray:none" d="m 146.56343,-49.992001 -131.102374,-0.0039" id="path2502"/>
				<text xml:space="preserve" style="font-size:12px;font-style:normal;font-weight:normal;fill:#000000;fill-opacity:1;stroke:none;font-family:Bitstream Vera Sans" x="154.21927" y="-64.169083" id="text5399"><tspan id="tspan5401" x="154.21927" y="-64.169083"/></text>
				<rect ry="0" y="475.84045" x="348.0108" height="3.5433071" width="0" id="rect2100" style="color:#000000;fill:#666666;fill-opacity:1;fill-rule:nonzero;stroke:#000000;stroke-width:1.77199996;stroke-linecap:butt;stroke-linejoin:round;stroke-miterlimit:4;stroke-opacity:1;stroke-dasharray:none;stroke-dashoffset:0;marker:none;display:inline;overflow:visible"/>
				<text xml:space="preserve" style="font-size:12px;font-style:normal;font-weight:normal;fill:#000000;fill-opacity:1;stroke:none;font-family:Bitstream Vera Sans" x="147.13264" y="300.79147" id="text2155"><tspan id="tspan2157" x="147.13264" y="300.79147"/></text>
				<rect ry="0" y="1050.5979" x="5379.5679" height="7.0866141" width="0" id="rect3663" style="color:#000000;fill:#666666;fill-opacity:1;fill-rule:nonzero;stroke:#000000;stroke-width:3.54399991;stroke-linecap:butt;stroke-linejoin:round;stroke-miterlimit:4;stroke-opacity:1;stroke-dasharray:none;stroke-dashoffset:0;marker:none;display:inline;overflow:visible"/>
				<rect ry="0" y="309.30502" x="362.1846" height="3.5433071" width="0" id="rect2363" style="color:#000000;fill:#666666;fill-opacity:1;fill-rule:nonzero;stroke:#000000;stroke-width:1.77199996;stroke-linecap:butt;stroke-linejoin:round;stroke-miterlimit:4;stroke-opacity:1;stroke-dasharray:none;stroke-dashoffset:0;marker:none;display:inline;overflow:visible"/>
				<text xml:space="preserve" style="font-size:12px;font-style:normal;font-weight:normal;fill:#000000;fill-opacity:1;stroke:none;font-family:Bitstream Vera Sans" x="147.13263" y="123.62622" id="text2441"><tspan id="tspan2443" x="147.13263" y="123.62622"/></text>
				<rect ry="0" y="873.43262" x="5379.5674" height="7.0866141" width="0" id="rect2445" style="color:#000000;fill:#666666;fill-opacity:1;fill-rule:nonzero;stroke:#000000;stroke-width:3.54399991;stroke-linecap:butt;stroke-linejoin:round;stroke-miterlimit:4;stroke-opacity:1;stroke-dasharray:none;stroke-dashoffset:0;marker:none;display:inline;overflow:visible"/>
				<path style="fill:none;stroke:#000000;stroke-width:3.54330707;stroke-linecap:butt;stroke-linejoin:miter;stroke-miterlimit:4;stroke-opacity:1;stroke-dasharray:none;display:inline" d="m 68.610671,-25.189183 2e-5,7.086607" id="path22316"/>
				<path style="fill:none;stroke:#000000;stroke-width:3.54330707;stroke-linecap:butt;stroke-linejoin:miter;stroke-miterlimit:4;stroke-opacity:1;stroke-dasharray:none;display:inline" d="m 68.610691,24.417108 -2e-5,7.08662" id="path22318"/>
				<path style="fill:none;stroke:#000000;stroke-width:3.54330707;stroke-linecap:round;stroke-linejoin:bevel;stroke-miterlimit:4;stroke-opacity:1;stroke-dasharray:none" d="m 68.610691,24.417108 7.0866,-3.5433 -14.17322,-7.08662 14.17322,-7.0866202 -14.17322,-7.08662403 14.17322,-7.08659897 -14.17322,-7.0866208 7.08662,-3.5433" id="path22320"/>
				<path style="fill:#ffffff;fill-opacity:1;stroke:#000000;stroke-width:1.77165353;stroke-miterlimit:4;stroke-opacity:1;stroke-dasharray:none;display:inline" id="path22326" d="m 97.440942,77.952759 c 0,0.978457 -0.793196,1.771653 -1.771653,1.771653 -0.978458,0 -1.771654,-0.793196 -1.771654,-1.771653 0,-0.978457 0.793196,-1.771654 1.771654,-1.771654 0.978457,0 1.771653,0.793197 1.771653,1.771654 z" transform="matrix(2,0,0,2,-175.87748,-99.602248)"/>
				<path style="fill:#ffffff;fill-opacity:1;stroke:#000000;stroke-width:1.77165353;stroke-miterlimit:4;stroke-opacity:1;stroke-dasharray:none;display:inline" id="path22328" d="m 97.440942,77.952759 c 0,0.978457 -0.793196,1.771653 -1.771653,1.771653 -0.978458,0 -1.771654,-0.793196 -1.771654,-1.771653 0,-0.978457 0.793196,-1.771654 1.771654,-1.771654 0.978457,0 1.771653,0.793197 1.771653,1.771654 z" transform="matrix(2,0,0,2,-175.87748,-205.90142)"/>
				<g style="display:inline" id="g2121" transform="matrix(2,0,0,2,-168.28738,175.17339)"/>
				<g transform="matrix(2,0,0,2,-368.66488,108.02749)" style="display:inline" id="g2143"/>
				<rect ry="0" y="364.00424" x="1340.6578" height="7.0866141" width="0" id="rect5230" style="color:#000000;fill:#666666;fill-opacity:1;fill-rule:nonzero;stroke:#000000;stroke-width:3.54399991;stroke-linecap:butt;stroke-linejoin:round;stroke-miterlimit:4;stroke-opacity:1;stroke-dasharray:none;stroke-dashoffset:0;marker:none;display:inline;overflow:visible"/>
				<g transform="matrix(-2,0,0,-2,2292.1991,933.14209)" id="g5255" style="display:inline"/>
				<path transform="matrix(1.338662,0,0,1.338662,-287.335,-173.15938)" d="m 267.66832,92.007843 c 0,0.978457 -0.7932,1.771654 -1.77165,1.771654 -0.97846,0 -1.77166,-0.793197 -1.77166,-1.771654 0,-0.978457 0.7932,-1.771654 1.77166,-1.771654 0.97845,0 1.77165,0.793197 1.77165,1.771654 z" id="path6613" style="color:#000000;fill:#000000;fill-opacity:1;fill-rule:nonzero;stroke:#000000;stroke-width:2.64690256;stroke-linecap:square;stroke-linejoin:miter;stroke-miterlimit:4;stroke-opacity:1;stroke-dasharray:none;stroke-dashoffset:0;marker:none;display:inline;overflow:visible"/>
				<path style="fill:none;stroke:#000000;stroke-width:3.54330707;stroke-linecap:butt;stroke-linejoin:miter;stroke-miterlimit:4;stroke-opacity:1;stroke-dasharray:none" d="m 68.610781,-25.188854 0,-24.803148" id="path6615"/>
				<path style="color:#000000;fill:#000000;fill-opacity:1;fill-rule:nonzero;stroke:#000000;stroke-width:2.64690256;stroke-linecap:square;stroke-linejoin:miter;stroke-miterlimit:4;stroke-opacity:1;stroke-dasharray:none;stroke-dashoffset:0;marker:none;display:inline;overflow:visible" id="path6643" d="m 267.66832,92.007843 c 0,0.978457 -0.7932,1.771654 -1.77165,1.771654 -0.97846,0 -1.77166,-0.793197 -1.77166,-1.771654 0,-0.978457 0.7932,-1.771654 1.77166,-1.771654 0.97845,0 1.77165,0.793197 1.77165,1.771654 z" transform="matrix(1.338662,0,0,1.338662,-287.335,-66.860191)"/>
				<path id="path2373" d="m 143.76027,-25.189183 2e-5,7.086606" style="fill:none;stroke:#000000;stroke-width:3.54330707;stroke-linecap:butt;stroke-linejoin:miter;stroke-miterlimit:4;stroke-opacity:1;stroke-dasharray:none;display:inline"/>
				<path id="path2375" d="m 143.76029,24.417108 -2e-5,7.08662" style="fill:none;stroke:#000000;stroke-width:3.54330707;stroke-linecap:butt;stroke-linejoin:miter;stroke-miterlimit:4;stroke-opacity:1;stroke-dasharray:none;display:inline"/>
				<path id="path2377" d="m 143.76029,24.417108 7.0866,-3.5433 -14.17322,-7.08662 14.17322,-7.0866202 -14.17322,-7.08662403 14.17322,-7.08659897 -14.17322,-7.0866218 7.08662,-3.5433" style="fill:none;stroke:#000000;stroke-width:3.54330707;stroke-linecap:round;stroke-linejoin:bevel;stroke-miterlimit:4;stroke-opacity:1;stroke-dasharray:none"/>
				<path style="color:#000000;fill:#000000;fill-opacity:1;fill-rule:nonzero;stroke:#000000;stroke-width:2.64690256;stroke-linecap:square;stroke-linejoin:miter;stroke-miterlimit:4;stroke-opacity:1;stroke-dasharray:none;stroke-dashoffset:0;marker:none;display:inline;overflow:visible" id="path2379" d="m 267.66832,92.007843 c 0,0.978457 -0.7932,1.771654 -1.77165,1.771654 -0.97846,0 -1.77166,-0.793197 -1.77166,-1.771654 0,-0.978457 0.7932,-1.771654 1.77166,-1.771654 0.97845,0 1.77165,0.793197 1.77165,1.771654 z" transform="matrix(1.338662,0,0,1.338662,-212.1854,-173.15938)"/>
				<path id="path2381" d="m 143.76038,-25.188854 0,-24.803148" style="fill:none;stroke:#000000;stroke-width:3.54330707;stroke-linecap:butt;stroke-linejoin:miter;stroke-miterlimit:4;stroke-opacity:1;stroke-dasharray:none"/>
				<path transform="matrix(1.338662,0,0,1.338662,-212.1854,-66.860191)" d="m 267.66832,92.007843 c 0,0.978457 -0.7932,1.771654 -1.77165,1.771654 -0.97846,0 -1.77166,-0.793197 -1.77166,-1.771654 0,-0.978457 0.7932,-1.771654 1.77166,-1.771654 0.97845,0 1.77165,0.793197 1.77165,1.771654 z" id="path2383" style="color:#000000;fill:#000000;fill-opacity:1;fill-rule:nonzero;stroke:#000000;stroke-width:2.64690256;stroke-linecap:square;stroke-linejoin:miter;stroke-miterlimit:4;stroke-opacity:1;stroke-dasharray:none;stroke-dashoffset:0;marker:none;display:inline;overflow:visible"/>
				<path id="path2389" d="m 143.76028,56.307212 0,-24.80315" style="fill:none;stroke:#000000;stroke-width:3.54330707;stroke-linecap:butt;stroke-linejoin:miter;stroke-miterlimit:4;stroke-opacity:1;stroke-dasharray:none"/>
				<g id="g3472" style="display:inline" transform="translate(-64.75438,186.97497)"/>
				<rect ry="0" y="438.86475" x="289.57632" height="3.5433071" width="0" id="rect3476" style="color:#000000;fill:#666666;fill-opacity:1;fill-rule:nonzero;stroke:#000000;stroke-width:1.77199996;stroke-linecap:butt;stroke-linejoin:round;stroke-miterlimit:4;stroke-opacity:1;stroke-dasharray:none;stroke-dashoffset:0;marker:none;display:inline;overflow:visible"/>
				<g transform="matrix(-1,0,0,-1,765.34682,723.43367)" id="g3478" style="display:inline"/>
				<g style="display:inline" id="g22342" transform="matrix(2,0,0,2,-158.80032,-201.11022)">
					<g id="g3867">
						<text xml:space="preserve" style="font-size:12px;font-style:normal;font-variant:normal;font-weight:normal;font-stretch:normal;text-align:start;line-height:100%;writing-mode:lr-tb;text-anchor:start;fill:#000000;fill-opacity:1;stroke:none;font-family:Times New Roman" x="160.59526" y="117.98843" id="text22344"><tspan id="tspan22346" x="160.59526" y="117.98843"><tspan style="font-size:16px;font-style:italic;font-variant:normal;font-weight:normal;font-stretch:normal;text-align:start;line-height:100%;writing-mode:lr-tb;text-anchor:start;font-family:Times New Roman" id="tspan22348">R</tspan></tspan></text>
						<text xml:space="preserve" style="font-size:12px;font-style:normal;font-weight:normal;line-height:125%;fill:#000000;fill-opacity:1;stroke:none;font-family:Bitstream Vera Sans" x="169.59055" y="121.62013" id="text22350"><tspan id="tspan22352" x="169.59055" y="121.62013" style="font-size:12px;font-style:normal;font-variant:normal;font-weight:normal;font-stretch:normal;text-align:start;line-height:125%;writing-mode:lr-tb;text-anchor:start;font-family:Times New Roman">2</tspan></text>
					</g>
				</g>
				<g transform="matrix(2,0,0,2,-237.94992,-201.11022)" id="g3874" style="display:inline">
					<g id="g3876">
						<text id="text3878" y="117.98843" x="160.59526" style="font-size:12px;font-style:normal;font-variant:normal;font-weight:normal;font-stretch:normal;text-align:start;line-height:100%;writing-mode:lr-tb;text-anchor:start;fill:#000000;fill-opacity:1;stroke:none;font-family:Times New Roman" xml:space="preserve"><tspan y="117.98843" x="160.59526" id="tspan3880"><tspan id="tspan3882" style="font-size:16px;font-style:italic;font-variant:normal;font-weight:normal;font-stretch:normal;text-align:start;line-height:100%;writing-mode:lr-tb;text-anchor:start;font-family:Times New Roman">R</tspan></tspan></text>
						<text id="text3884" y="121.62013" x="169.59055" style="font-size:12px;font-style:normal;font-weight:normal;line-height:125%;fill:#000000;fill-opacity:1;stroke:none;font-family:Bitstream Vera Sans" xml:space="preserve"><tspan style="font-size:12px;font-style:normal;font-variant:normal;font-weight:normal;font-stretch:normal;text-align:start;line-height:125%;writing-mode:lr-tb;text-anchor:start;font-family:Times New Roman" y="121.62013" x="169.59055" id="tspan3886">1</tspan></text>
					</g>
				</g>
			</g>
		</g>
		<rect id="cover" width="213" height="138" fill="white" fill-opacity="0" style="cursor: default;" vector-effects="non-scaling-stroke" stroke-width="6" stroke-opacity=".5"/></g></g></g><rect id="schematicRect" stroke="none" fill="#c9a0dc" fill-opacity=".4"/></svg>